<svg width="35" height="35" viewBox="0 0 18 18" fill="none" xmlns="http://www.w3.org/2000/svg">
<g id="linkedin-161-svgrepo-com 1" clip-path="url(#clip0_15_305)">
<g id="Page-1">
<g id="Dribbble-Light-Preview">
<g id="icons">
<path id="linkedin-[#161]" fill-rule="evenodd" clip-rule="evenodd" d="M18 18H14.4V11.7009C14.4 9.97288 13.6377 9.00879 12.2706 9.00879C10.7829 9.00879 9.9 10.0134 9.9 11.7009V18H6.3V6.3H9.9V7.61572C9.9 7.61572 11.0295 5.63379 13.5747 5.63379C16.1208 5.63379 18 7.18749 18 10.4023V18ZM2.1978 4.42881C0.983701 4.42881 0 3.43706 0 2.21396C0 0.991765 0.983701 0 2.1978 0C3.411 0 4.3947 0.991765 4.3947 2.21396C4.3956 3.43706 3.411 4.42881 2.1978 4.42881ZM0 18H4.5V6.3H0V18Z" fill="white"/>
</g>
</g>
</g>
</g>
<defs>
<clipPath id="clip0_15_305">
<rect width="18" height="18" fill="white"/>
</clipPath>
</defs>
</svg>
